#!OML:ASF F:\VICON\USERDATA\INSTALL\rory3\rory3.ASF
:FULLY-SPECIFIED
:DEGREES
316
root -0.780996 16.5767 -2.88111 -2.23595 -25.0279 5.88764
lowerback 20.714 -2.95738 4.21188
upperback 10.7045 -3.21113 7.91336
thorax 0.39252 -1.81076 6.79168
lowerneck -8.11672 -4.74555 -9.97
upperneck 35.0067 -6.53407 3.50782
head 13.6688 -3.77484 2.22311
rclavicle -5.56597e-014 1.145e-013
rhumerus -55.8519 23.8306 -90.5732
rradius 55.8604
rwrist 40.7807
rhand -57.2964 26.6914
rfingers 7.12502
rthumb -29.5744 -0.972044
lclavicle -5.56597e-014 1.145e-013
lhumerus -35.9223 -21.1779 98.9107
lradius 85.5177
lwrist -20.3852
lhand -45.7134 12.7463
lfingers 7.12502
lthumb -18.47 41.8895
rfemur -38.8098 -14.6439 8.51124
rtibia 49.4207
rfoot -6.03063 -4.2611
rtoes 13.1107
lfemur -85.5997 18.3607 -31.5255
ltibia 134.86
lfoot -16.6491 -12.3516
ltoes -20.1074
317
root -0.751702 16.5369 -2.90742 -2.54101 -24.8893 5.42585
lowerback 20.9133 -2.90148 3.95597
upperback 10.6087 -3.15364 7.9649
thorax 0.197609 -1.7932 7.00041
lowerneck -7.92845 -4.7531 -10.1828
upperneck 34.9324 -6.62094 3.81111
head 13.6239 -3.80769 2.37219
rclavicle -1.59028e-014 5.725e-014
rhumerus -56.5602 23.2729 -90.574
rradius 56.7763
rwrist 40.8658
rhand -56.7735 26.5717
rfingers 7.12502
rthumb -29.0751 -1.1791
lclavicle -1.59028e-014 5.725e-014
lhumerus -35.9102 -21.2 98.9951
lradius 85.4183
lwrist -20.8968
lhand -45.6591 12.6618
lfingers 7.12502
lthumb -18.4178 41.8099
rfemur -38.6769 -14.6139 8.77262
rtibia 49.9809
rfoot -5.95395 -4.30825
rtoes 12.8394
lfemur -85.6414 18.482 -31.2086
ltibia 135.267
lfoot -16.7025 -11.9497
ltoes -18.6165
318
root -0.719986 16.5037 -2.92487 -3.15356 -24.7867 5.49655
lowerback 21.0514 -2.78414 3.18771
upperback 10.5864 -3.12483 7.90161
thorax 0.132826 -1.80773 7.37571
lowerneck -7.87702 -4.72842 -10.2501
upperneck 34.9064 -6.61213 3.91635
head 13.6073 -3.8034 2.42773
rclavicle 6.67916e-014 0
rhumerus -57.0664 22.8982 -90.5401
rradius 57.4322
rwrist 40.927
rhand -56.2491 26.6742
rfingers 7.12502
rthumb -28.5743 -1.16197
lclavicle 6.67916e-014 0
lhumerus -35.9031 -21.1946 99.1717
lradius 85.2655
lwrist -21.9009
lhand -45.8378 13.5524
lfingers 7.12502
lthumb -18.5897 42.6841
rfemur -38.4423 -14.753 8.47325
rtibia 50.5062
rfoot -5.58432 -4.11223
rtoes 11.8644
lfemur -85.3072 18.3132 -31.3774
ltibia 135.489
lfoot -16.7811 -11.3021
ltoes -17.1416
319
root -0.683513 16.4836 -2.91375 -4.38008 -24.7952 6.59651
lowerback 20.9271 -2.56836 1.66598
upperback 10.7259 -3.14452 7.48385
thorax 0.396324 -1.87087 7.77934
lowerneck -7.8857 -4.70757 -10.1615
upperneck 34.9575 -6.60712 3.92123
head 13.6267 -3.79334 2.41477
rclavicle 2.22639e-014 -1.90833e-014
rhumerus -57.5088 22.7257 -90.6556
rradius 57.9626
rwrist 40.707
rhand -55.864 26.3823
rfingers 7.12502
rthumb -28.2062 -1.51515
lclavicle 2.22639e-014 -1.90833e-014
lhumerus -35.8162 -21.1646 99.1917
lradius 85.1037
lwrist -22.7364
lhand -45.8047 14.0454
lfingers 7.12502
lthumb -18.5578 43.1802
rfemur -37.975 -15.1568 7.03949
rtibia 51.0394
rfoot -5.02777 -3.50996
rtoes 10.7928
lfemur -83.862 17.5603 -32.5026
ltibia 135.526
lfoot -17.4351 -9.9422
ltoes -15.8728
320
root -0.636038 16.5053 -2.86381 -7.1328 -24.6781 10.2168
lowerback 20.6062 -2.11803 -1.79603
upperback 11.1295 -3.21928 6.29491
thorax 1.12723 -2.04406 8.44819
lowerneck -7.85247 -4.71049 -9.93326
upperneck 34.904 -6.67065 3.95049
head 13.5896 -3.79062 2.37761
rclavicle 1.59028e-015 -3.18055e-015
rhumerus -57.8348 22.4988 -90.9369
rradius 58.6796
rwrist 39.3722
rhand -54.6541 26.8758
rfingers 7.12502
rthumb -27.0493 -1.20694
lclavicle 1.59028e-015 -3.18055e-015
lhumerus -35.5906 -21.1451 98.9706
lradius 85.0285
lwrist -23.3736
lhand -45.5556 13.7162
lfingers 7.12502
lthumb -18.3182 42.8737
rfemur -36.8369 -16.2289 2.77498
rtibia 51.4931
rfoot -3.99547 -1.99919
rtoes 9.71748
lfemur -80.0443 15.0995 -35.9836
ltibia 134.769
lfoot -18.9583 -7.16138
ltoes -15.1046
321
root -0.617631 16.4309 -2.98249 -4.42692 -25.0037 4.96508
lowerback 21.3997 -2.40403 1.92927
upperback 10.6632 -2.85068 7.53816
thorax 0.044847 -1.7115 7.66079
lowerneck -7.86827 -4.70938 -9.85173
upperneck 34.8366 -6.71678 4.0605
head 13.5664 -3.78822 2.39947
rclavicle 1.59028e-015 -1.27222e-014
rhumerus -57.9108 22.3427 -91.1425
rradius 59.5484
rwrist 36.5393
rhand -52.0683 28.7265
rfingers 7.12502
rthumb -24.5729 0.283512
lclavicle 1.59028e-015 -1.27222e-014
lhumerus -35.3145 -21.0341 98.8497
lradius 84.9843
lwrist -23.9245
lhand -45.6826 13.2519
lfingers 7.12502
lthumb -18.4404 42.3978
rfemur -38.1227 -14.5622 8.37475
rtibia 51.9081
rfoot -4.37688 -3.96212
rtoes 10.7942
lfemur -84.6966 18.8332 -31.3323
ltibia 136.213
lfoot -17.2368 -10.2585
ltoes -14.8686
322
root -0.581831 16.4185 -3.00454 -4.68382 -25.0821 4.73196
lowerback 21.4368 -2.33115 1.5228
upperback 10.6747 -2.8322 7.47083
thorax 0.0517312 -1.71811 7.81982
lowerneck -7.90216 -4.64547 -9.94799
upperneck 34.8274 -6.64419 4.19226
head 13.5724 -3.75616 2.47811
rclavicle 4.77083e-015 -3.02153e-014
rhumerus -57.9131 22.3773 -91.1739
rradius 59.5249
rwrist 36.9422
rhand -51.8724 27.8545
rfingers 7.12502
rthumb -24.3851 -0.613876
lclavicle 4.77083e-015 -3.02153e-014
lhumerus -35.0883 -20.805 98.8776
lradius 84.8656
lwrist -24.7266
lhand -46.0535 14.0099
lfingers 7.12502
lthumb -18.7971 43.1216
rfemur -38.1144 -14.4565 8.40103
rtibia 52.2566
rfoot -3.76413 -4.05547
rtoes 11.0516
lfemur -84.5878 18.8747 -31.2548
ltibia 136.335
lfoot -17.3414 -10.1298
ltoes -14.7325
323
root -0.544834 16.4091 -3.02486 -4.94517 -25.2022 4.45897
lowerback 21.4429 -2.27413 1.28286
upperback 10.7266 -2.81085 7.33564
thorax 0.10499 -1.7155 7.80218
lowerneck -7.81876 -4.5817 -9.85986
upperneck 34.7092 -6.58758 4.24046
head 13.4926 -3.71764 2.49047
rclavicle -1.59028e-015 -5.24792e-014
rhumerus -57.8871 22.3919 -91.3037
rradius 59.7022
rwrist 36.7926
rhand -51.4723 27.168
rfingers 7.12502
rthumb -24.0016 -1.35142
lclavicle -1.59028e-015 -5.24792e-014
lhumerus -34.7761 -20.6396 98.7869
lradius 84.705
lwrist -25.5319
lhand -46.5561 15.2125
lfingers 7.12502
lthumb -19.2805 44.2767
rfemur -38.0913 -14.337 8.49147
rtibia 52.5599
rfoot -2.92678 -4.12624
rtoes 10.3661
lfemur -84.3699 19.0143 -31.0849
ltibia 136.463
lfoot -17.6042 -10.16
ltoes -14.7231
324
root -0.504953 16.4038 -3.03985 -5.20649 -25.4205 4.15866
lowerback 21.3737 -2.20058 1.16704
upperback 10.8259 -2.75496 7.16343
thorax 0.23459 -1.69147 7.65776
lowerneck -7.72488 -4.51717 -9.76078
upperneck 34.5765 -6.5444 4.32831
head 13.4065 -3.67851 2.51484
rclavicle -1.43125e-014 1.90833e-014
rhumerus -57.7661 22.3363 -91.4298
rradius 59.8519
rwrist 36.4983
rhand -51.1185 26.9648
rfingers 7.12502
rthumb -23.6623 -1.59894
lclavicle -1.43125e-014 1.90833e-014
lhumerus -34.4603 -20.4341 98.5548
lradius 84.7015
lwrist -25.939
lhand -47.0094 15.4082
lfingers 7.12502
lthumb -19.7164 44.4283
rfemur -38.0761 -14.2488 8.62165
rtibia 52.8066
rfoot -1.96397 -4.13505
rtoes 9.94242
lfemur -84.1595 19.2715 -30.8423
ltibia 136.492
lfoot -17.8117 -10.4841
ltoes -14.4663
325
root -0.462939 16.4029 -3.05309 -5.43468 -25.6682 3.78402
lowerback 21.2996 -2.1377 1.16041
upperback 10.9171 -2.69225 6.99261
thorax 0.351671 -1.65891 7.45064
lowerneck -7.71745 -4.47292 -9.75716
upperneck 34.6041 -6.5349 4.47998
head 13.4207 -3.65954 2.57623
rclavicle 1.19271e-013 -2.70347e-014
rhumerus -57.6242 22.2128 -91.5378
rradius 59.8941
rwrist 36.3328
rhand -50.7813 26.89
rfingers 7.12502
rthumb -23.3388 -1.71514
lclavicle 1.19271e-013 -2.70347e-014
lhumerus -34.312 -20.3042 98.3509
lradius 84.8175
lwrist -26.393
lhand -46.9941 15.7293
lfingers 7.12502
lthumb -19.7016 44.751
rfemur -38.0247 -14.1748 8.80905
rtibia 52.993
rfoot -1.08832 -4.18974
rtoes 10.7539
lfemur -83.9008 19.5447 -30.5263
ltibia 136.482
lfoot -17.9595 -10.9133
ltoes -13.5453
326
root -0.420079 16.4039 -3.06712 -5.68391 -25.9551 3.47871
lowerback 21.2694 -2.01374 1.15337
upperback 10.9827 -2.54473 6.80383
thorax 0.407334 -1.58072 7.21056
lowerneck -7.73868 -4.47494 -9.63614
upperneck 34.6513 -6.57532 4.51448
head 13.4449 -3.66017 2.56292
rclavicle 1.90833e-014 1.74931e-014
rhumerus -57.4751 21.9735 -91.6089
rradius 59.9801
rwrist 35.879
rhand -50.142 26.8914
rfingers 7.12502
rthumb -22.7254 -1.79032
lclavicle 1.90833e-014 1.74931e-014
lhumerus -34.1811 -20.4237 98.2475
lradius 84.8774
lwrist -26.6036
lhand -46.6874 16.0083
lfingers 7.12502
lthumb -19.4067 45.0599
rfemur -37.9708 -14.1446 8.96141
rtibia 53.1414
rfoot -0.154691 -4.20292
rtoes 10.7842
lfemur -83.6314 19.8396 -30.3198
ltibia 136.48
lfoot -18.2098 -11.2084
ltoes -13.306
327
root -0.376561 16.4021 -3.07931 -5.8517 -26.272 3.09164
lowerback 21.2452 -1.93488 1.14665
upperback 11.0036 -2.45119 6.71638
thorax 0.425196 -1.53274 7.09614
lowerneck -7.73322 -4.42658 -9.64233
upperneck 34.6239 -6.46838 4.41606
head 13.4184 -3.62881 2.53912
rclavicle 2.54444e-014 -6.36111e-015
rhumerus -57.3284 21.9553 -91.5661
rradius 60.0223
rwrist 35.4954
rhand -49.4896 26.9562
rfingers 7.12502
rthumb -22.0991 -1.80093
lclavicle 2.54444e-014 -6.36111e-015
lhumerus -34.0388 -20.147 98.241
lradius 84.8898
lwrist -26.5823
lhand -46.4053 15.6552
lfingers 7.12502
lthumb -19.1355 44.7338
rfemur -37.9781 -14.1574 9.24155
rtibia 53.2562
rfoot 0.884972 -4.22422
rtoes 10.5168
lfemur -83.5002 20.2854 -30.1124
ltibia 136.559
lfoot -18.5687 -11.5836
ltoes -13.9181
328
root -0.333045 16.399 -3.09374 -5.92975 -26.5481 2.60954
lowerback 21.2706 -1.91933 1.13387
upperback 10.9546 -2.43148 6.70569
thorax 0.355805 -1.52263 7.09012
lowerneck -7.72685 -4.30854 -9.88974
upperneck 34.6516 -6.2579 4.44533
head 13.4225 -3.56994 2.62373
rclavicle 6.36111e-015 -7.15625e-014
rhumerus -57.3665 22.1516 -91.5343
rradius 60.1729
rwrist 35.2537
rhand -48.8705 26.7904
rfingers 7.12502
rthumb -21.5046 -2.03583
lclavicle 6.36111e-015 -7.15625e-014
lhumerus -34.0283 -19.6726 98.2816
lradius 84.9711
lwrist -26.711
lhand -46.106 16.12
lfingers 7.12502
lthumb -18.8477 45.2269
rfemur -38.0458 -14.1994 9.60717
rtibia 53.3484
rfoot 1.94767 -4.41736
rtoes 10.9148
lfemur -83.529 20.7183 -29.8766
ltibia 136.685
lfoot -18.8128 -12.0145
ltoes -14.2514
329
root -0.287423 16.3968 -3.11203 -6.00165 -26.6713 2.11575
lowerback 21.4308 -1.95754 1.21452
upperback 10.8078 -2.44731 6.65572
thorax 0.109246 -1.51902 7.00345
lowerneck -7.62654 -4.16842 -10.0404
upperneck 34.683 -6.04008 4.45376
head 13.401 -3.50014 2.68608
rclavicle 1.19271e-014 4.92986e-014
rhumerus -57.4665 22.2377 -91.5998
rradius 60.299
rwrist 34.7336
rhand -48.0401 26.9818
rfingers 7.12502
rthumb -20.707 -1.93354
lclavicle 1.19271e-014 4.92986e-014
lhumerus -34.1664 -19.3654 98.2352
lradius 85.1709
lwrist -26.4496
lhand -45.7899 16.2585
lfingers 7.12502
lthumb -18.5436 45.3946
rfemur -38.0647 -14.3455 9.93307
rtibia 53.4276
rfoot 2.96374 -4.56464
rtoes 10.9066
lfemur -83.5876 20.8281 -29.6333
ltibia 136.808
lfoot -18.8989 -12.3893
ltoes -14.8312
330
root -0.24447 16.3964 -3.12818 -6.15723 -26.786 1.70175
lowerback 21.5439 -1.96096 1.2188
upperback 10.7383 -2.44149 6.59771
thorax -0.0283413 -1.51115 6.94339
lowerneck -7.64287 -4.07006 -10.0821
upperneck 34.6739 -5.86014 4.37938
head 13.3827 -3.43901 2.68803
rclavicle -1.27222e-014 1.59028e-014
rhumerus -57.4105 22.2201 -91.5676
rradius 60.3578
rwrist 34.0975
rhand -47.1167 27.3421
rfingers 7.12502
rthumb -19.8195 -1.66741
lclavicle -1.27222e-014 1.59028e-014
lhumerus -34.1328 -19.0673 98.1149
lradius 85.3268
lwrist -25.7678
lhand -45.4838 15.404
lfingers 7.12502
lthumb -18.2491 44.568
rfemur -38.0105 -14.5247 10.1969
rtibia 53.4979
rfoot 3.997 -4.59733
rtoes 9.7887
lfemur -83.5084 21.0006 -29.4473
ltibia 136.932
lfoot -19.1028 -12.8156
ltoes -16.0945
